# Alias OBJ Model File
# Exported from SketchUp, (c) 2000-2006 Google, Inc.
# File units = meters

mtllib pontdetruit_gauche.mtl

g Mesh1 default_group Mesh1_default_group_Mesh1_Mesh1_default_object_skpAB1_Mesh1_def skp69_1 Model

usemtl Material1
v 2.99944 0.486371 -1.50737
vt 58.8905 19.1485
vn 0.999993 0 -0.00384731
v 2.99563 0.486371 -2.49924
vt 97.9407 19.1485
vn 0.704379 -1.94107e-018 -0.709824
v 2.99563 1.34249 -2.49924
vt 97.9407 52.8539
vn 0.575123 0.577351 -0.579568
f 1/1/1 2/2/2 3/3/3

vn 0.470831 -0.326171 -0.819714
vn 0.999983 -7.53985e-019 -0.00586476
v 2.99944 -0.559453 -1.50737
vt 58.8905 -22.0257
vn 0.581465 -0.692816 -0.426503
f 2/2/4 1/1/5 4/4/6

vt 58.4126 19.1485
v 3.00869 -0.559453 -0.333873
vt 12.2105 -22.0257
vn 0.707085 -0.707107 -0.00557355
vt 58.4126 -22.0257
vn 0.581465 -0.692816 -0.426503
f 1/5/5 5/6/7 4/7/8

vn 0.707085 0.707107 -0.00557355
v 3.00869 0.486371 -0.333873
vt 12.2105 19.1485
vn 0.411936 0.408798 0.814367
vn 0.580337 -0.578127 0.573566
f 1/5/9 6/8/10 5/6/11

usemtl sable1
vt 118.088 59.3453
v -3.00172 0.486371 -0.31071
vt -118.178 12.2327
vn -0.574337 0.576577 0.581117
vt 118.452 13.1446
f 1/9/9 7/10/12 6/11/10

vn 0.556001 0.625759 0.547073
v -3.01097 0.486371 -1.48421
vt -118.542 58.4333
vn -0.797343 0.451271 0.400748
vn -0.707085 0.707107 0.00557343
f 1/9/13 8/12/14 7/10/15

usemtl Material1
vt -118.316 26.6277
vt 118.316 26.6277
v 2.99901 1.34249 -1.6194
vt 118.316 60.6205
vn 0.394649 0.493297 0.775184
f 8/13/14 1/14/13 9/15/16

vt 58.8909 19.148
vt 97.9411 52.8535
vn 0.7071 0.707108 -0.00271799
vt 63.3016 52.8535
f 1/16/13 3/17/17 9/18/16

v -3.01141 1.34249 -1.59624
vt -118.559 62.844
vn -0.551772 0.62576 0.551337
vt 118.071 63.7559
vt 117.938 98.3951
f 10/19/18 9/20/16 3/21/17

vt 118.316 60.6205
vt -118.316 60.6205
vt -118.316 26.6277
vn -0.704402 0.0917469 0.703847
f 9/22/16 10/23/18 8/24/19

vt -63.2996 52.8543
v -3.01479 0.486371 -2.47608
vt -97.9395 19.1489
vn -0.999993 -3.38422e-006 0.00384708
vt -58.889 19.1489
f 10/25/18 11/26/20 8/27/19

vt -63.2992 52.8539
vn -0.707102 0.707107 0.00271796
v -3.01479 1.34249 -2.47608
vt -97.9391 52.8539
vn -0.411389 0.408247 -0.814919
vt -97.9391 19.1485
vn -0.47713 -0.326169 -0.816064
f 10/28/21 12/29/22 11/30/23

vt -118.692 97.4836
vn -0.411389 0.408247 -0.814919
f 10/19/21 3/21/3 12/31/24

vt 118.316 52.8539
vt -118.316 52.8539
vt -118.316 19.1485
f 12/32/24 3/33/3 2/34/2

vt 118.316 52.854
vt -118.316 19.1486
vt 118.316 19.1486
f 12/35/22 2/36/4 11/37/23

vt 118.316 81.2905
vt -118.316 81.2905
vt -118.316 24.5435
f 11/38/23 2/39/4 4/40/6

vt 118.316 81.2909
vn -0.709077 -0.486593 -0.510331
vt -118.316 24.5436
v -3.01097 -0.559453 -1.48421
vt 118.316 24.5436
vn -0.737703 -0.621818 -0.262937
f 11/41/25 4/42/8 13/43/26

vt 118.542 58.4333
vt -118.088 59.3453
vt -118.452 13.1446
f 13/44/26 4/45/8 5/46/7

vn -0.707085 -0.707107 0.00557343
v -3.00172 -0.559453 -0.31071
vt 118.178 12.2327
vn -0.404546 -0.407701 0.81861
f 13/44/27 5/46/11 14/47/28

vt -118.13 -22.0257
vt 118.502 -22.0257
vt 118.502 19.1485
f 14/48/28 5/49/11 6/50/10

vt -118.13 19.1485
f 14/48/28 6/50/10 7/51/12

vt -13.1638 19.1485
vt -59.3659 -22.0257
vt -13.1638 -22.0257
f 7/52/12 13/53/27 14/54/28

vt -59.3659 19.1485
f 7/52/15 8/55/14 13/53/26

vt -58.889 19.1485
vt -97.9395 19.1485
vt -58.889 -22.0257
f 8/56/14 11/57/25 13/58/26

