# Alias OBJ Model File
# Exported from SketchUp, (c) 2000-2006 Google, Inc.
# File units = meters

mtllib piece.mtl

g Mesh1 default_group Cube_Cube_001 skp3E0_1 Model

usemtl Material1
v -0.499436 -0.279148 0.060648
vt 2.38772 -10.9901
vn -1 0 -0
v -0.499436 0.279386 0.06065
vt 2.3878 10.9994
v -0.499436 0.279386 -0.090283
vt -3.55445 10.9994
f 1/1/1 2/2/1 3/3/1

vt -18.9514 10.9995
vn -0.142788 0.0556244 0.988189
vt -18.9514 -10.9901
vn -0.142329 -0.0565037 0.988205
v 0 0 0.148542
vt 1.0136 2.02959e-005
vn -2.38488e-005 -0.000246482 1
f 2/4/2 1/5/3 4/6/4

vt 0.651807 0.655374
vn -2.38488e-005 -0.000246482 1
vt -19.2742 -10.4053
v -0.275123 -0.499436 0.060648
vt -10.498 -19.1337
vn -0.0554832 -0.143332 0.988118
f 4/7/5 1/8/3 5/9/6

vt 2.38772 6.32853
vn -0.700677 -0.713479 -8.8363e-017
v -0.275123 -0.499436 -0.090285
vt -3.55453 -6.04916
vt 2.38772 -6.04916
f 1/10/7 6/11/7 5/12/7

vt 2.38785 6.32847
vn -0.700678 -0.713477 -4.69476e-006
v -0.499436 -0.279147 -0.090285
vt -3.5544 6.32852
vt -3.55446 -6.04919
f 1/13/8 7/14/8 6/15/8

vt -3.55453 -10.99
f 1/1/1 3/3/1 7/16/1

v 0 0 -0.178177
vt -1.21582 -2.44188e-005
vn -2.38541e-005 -0.00024241 -1
vt 18.7492 -10.9901
vn -0.142328 -0.0564988 -0.988206
vt 18.7492 10.9994
vn -0.142789 0.0556292 -0.988189
f 8/17/9 7/18/10 3/19/11

vt -0.781831 0.786106
vn -2.38541e-005 -0.00024241 -1
vt 10.368 -19.003
vn -0.0554821 -0.143328 -0.988119
vt 19.1442 -10.2745
f 8/20/12 6/21/13 7/22/10

vt 5.31431e-017 1.21581
vn -2.38541e-005 -0.00024241 -1
v 0.274655 -0.499436 -0.090285
vt -10.8132 -18.7492
vn 0.0557168 -0.143251 -0.988117
vt 10.8316 -18.7492
f 8/23/14 9/24/15 6/25/13

vt 0.785112 0.784957
vn -2.38541e-005 -0.00024241 -1
v 0.499436 -0.277444 -0.090285
vt -19.1415 -10.208
vn 0.142561 -0.0564185 -0.988177
vt -10.3474 -19.0037
f 8/26/16 10/27/17 9/28/15

vt 1.21582 -2.45202e-005
vn -2.38541e-005 -0.00024241 -1
v 0.499436 0.278779 -0.090283
vt -18.7492 10.9755
vn 0.142468 0.0563278 -0.988195
vt -18.7492 -10.923
f 8/29/18 11/30/19 10/31/17

vt 0.783791 -0.783665
vn -2.38541e-005 -0.00024241 -1
v 0.276008 0.499436 -0.090283
vt -10.4013 19.0046
vn 0.0556241 0.143158 -0.988135
vt -19.1426 10.2619
f 8/32/20 12/33/21 11/34/19

vt 6.9247e-017 -1.21583
vn -2.38541e-005 -0.00024241 -1
v -0.280666 0.499436 -0.090283
vt 11.0498 18.7492
vn -0.0559545 0.142468 -0.988217
vt -10.8665 18.7492
f 8/35/22 13/36/23 12/37/21

vt -0.788291 -0.773927
vn -2.38541e-005 -0.00024241 -1
vt 19.1389 10.294
vt 10.5804 19.0112
f 8/38/24 3/39/11 13/40/23

v -0.280666 0.499436 0.06065
vt 2.3878 6.15362
vn -0.709166 0.705041 -0
vt -3.55445 6.15362
vt -3.55445 -6.06267
f 14/41/25 13/42/25 3/43/25

vt -11.0498 -2.3878
vn 0 1 -0
vt 10.8665 3.55445
vt -11.0498 3.55445
f 14/44/26 12/45/26 13/46/26

v 0.276008 0.499436 0.06065
vt 10.8665 -2.3878
f 14/44/26 15/47/26 12/45/26

vt -5.84009e-017 -1.01359
vn -2.38488e-005 -0.000246482 1
vt 10.8665 18.9514
vn 0.0556229 0.143155 0.988136
vt -11.0498 18.9514
vn -0.0559532 0.142465 0.988217
f 4/48/27 15/49/28 14/50/29

vt -0.653413 -0.653309
vn -2.38488e-005 -0.000246482 1
v 0.499436 0.278779 0.06065
vt 19.2729 10.3923
vn 0.142466 0.056323 0.988196
vt 10.5316 19.135
f 4/51/30 16/52/31 15/53/28

vt -1.0136 2.03801e-005
vn -2.38488e-005 -0.000246482 1
v 0.499436 -0.277445 0.060648
vt 18.9514 -10.923
vn 0.142562 -0.0564234 0.988176
vt 18.9514 10.9756
f 4/54/32 17/55/33 16/56/31

vt -0.654543 0.654416
vn -2.38488e-005 -0.000246482 1
v 0.274655 -0.499436 0.060648
vt 10.478 -19.1343
vn 0.0557179 -0.143254 0.988116
vt 19.272 -10.3385
f 4/57/34 18/58/35 17/59/33

vt 0 1.01361
vn -2.38488e-005 -0.000246482 1
vt -10.8316 -18.9514
vt 10.8132 -18.9514
f 4/60/36 5/61/6 18/62/35

vt -10.8132 -2.38772
vn 0 -1 -0
vt 10.8316 -2.38772
vt 10.8316 3.55453
f 18/63/37 5/64/37 6/65/37

vt -10.8132 3.55453
f 18/63/37 6/65/37 9/66/37

vt 3.55453 6.31489
vn 0.702679 -0.711507 -0
vt -2.38772 -6.123
vt 3.55453 -6.123
f 10/67/38 18/68/38 9/69/38

vt 3.5544 6.31495
vn 0.702677 -0.711509 -4.56762e-006
vt -2.38784 6.3149
vt -2.38779 -6.12296
f 10/70/39 17/71/39 18/72/39

vt -2.3878 10.9756
vn 1 0 -0
vt -2.38772 -10.923
vt 3.55453 -10.923
f 16/73/40 17/74/40 10/75/40

vt 3.55445 10.9756
f 16/73/40 10/75/40 11/76/40

vt -2.3878 -6.2779
vn 0.702681 0.711505 1.77636e-016
vt 3.55445 -6.2779
vt 3.55445 6.08516
f 16/77/41 11/78/41 12/79/41

vt -2.3878 -6.2779
vn 0.702681 0.711505 8.8818e-017
vt 3.55445 6.08516
vt -2.3878 6.08516
f 16/80/42 12/81/42 15/82/42

vt 0.657165 -0.64519
vn -2.38488e-005 -0.000246482 1
vt -10.7115 19.14
vt -19.27 10.4227
f 4/83/43 14/84/29 2/85/2

vt 2.3878 6.15362
vn -0.709166 0.705041 -9.12648e-017
vt -3.55445 -6.06267
vt 2.3878 -6.06267
f 14/86/44 3/87/44 2/88/44

